{
  "accessors": [
    {
      "bufferView": 2,
      "componentType": 5126,
      "count": 623,
      "max": [
        4.966320037841797,
        7.535280227661133,
        8.331740379333496
      ],
      "min": [
        -9.842470169067383,
        -1.5309100151062012,
        -10.24785041809082
      ],
      "type": "VEC3"
    },
    {
      "bufferView": 2,
      "byteOffset": 7476,
      "componentType": 5126,
      "count": 623,
      "max": [
        0.9990678429603577,
        0.9950593113899231,
        1.0
      ],
      "min": [
        -0.9955796599388123,
        -0.9992141723632813,
        -1.0
      ],
      "type": "VEC3"
    },
    {
      "bufferView": 1,
      "componentType": 5126,
      "count": 623,
      "max": [
        0.11801999807357788,
        0.9290599822998047
      ],
      "min": [
        0.08061999827623367,
        0.668429970741272
      ],
      "type": "VEC2"
    },
    {
      "bufferView": 0,
      "componentType": 5125,
      "count": 927,
      "type": "SCALAR"
    },
    {
      "bufferView": 2,
      "byteOffset": 14952,
      "componentType": 5126,
      "count": 384,
      "max": [
        1.630020022392273,
        1.5983200073242188,
        0.9942799806594849
      ],
      "min": [
        -1.646649956703186,
        -0.9927999973297119,
        -1.2559599876403809
      ],
      "type": "VEC3"
    },
    {
      "bufferView": 2,
      "byteOffset": 19560,
      "componentType": 5126,
      "count": 384,
      "max": [
        0.9031046628952026,
        0.9762651324272156,
        0.9961420297622681
      ],
      "min": [
        -0.9031046628952026,
        -0.9791004657745361,
        -0.9961420297622681
      ],
      "type": "VEC3"
    },
    {
      "bufferView": 1,
      "byteOffset": 4984,
      "componentType": 5126,
      "count": 384,
      "max": [
        0.8592100143432617,
        0.4212700128555298
      ],
      "min": [
        0.6269999742507935,
        0.1890600025653839
      ],
      "type": "VEC2"
    },
    {
      "bufferView": 0,
      "byteOffset": 3708,
      "componentType": 5125,
      "count": 384,
      "type": "SCALAR"
    }
  ],
  "asset": {
    "extras": {
      "author": "AngeloB (https://sketchfab.com/AngeloB)",
      "license": "CC-BY-4.0 (http://creativecommons.org/licenses/by/4.0/)",
      "source": "https://sketchfab.com/3d-models/arbol-low-poly-mi-primer-blender-462eff5fdc1145cfaf565b3aae1a8dad",
      "title": "Arbol Low Poly (Mi Primer Blender)"
    },
    "generator": "Sketchfab-12.67.0",
    "version": "2.0"
  },
  "bufferViews": [
    {
      "buffer": 0,
      "byteLength": 5244,
      "name": "floatBufferViews",
      "target": 34963
    },
    {
      "buffer": 0,
      "byteLength": 8056,
      "byteOffset": 5244,
      "byteStride": 8,
      "name": "floatBufferViews",
      "target": 34962
    },
    {
      "buffer": 0,
      "byteLength": 24168,
      "byteOffset": 13300,
      "byteStride": 12,
      "name": "floatBufferViews",
      "target": 34962
    }
  ],
  "buffers": [
    {
      "byteLength": 37468,
      "uri": "scene.bin"
    }
  ],
  "images": [
    {
      "uri": "textures/Material.002_baseColor.png"
    }
  ],
  "materials": [
    {
      "doubleSided": true,
      "name": "Material.002",
      "pbrMetallicRoughness": {
        "baseColorTexture": {
          "index": 0
        },
        "metallicFactor": 0.0,
        "roughnessFactor": 0.6
      }
    },
    {
      "doubleSided": true,
      "name": "Material.003",
      "pbrMetallicRoughness": {
        "baseColorFactor": [
          0.3343185484,
          0.1083729342,
          0.0146244206,
          1.0
        ],
        "metallicFactor": 0.0,
        "roughnessFactor": 0.6
      }
    }
  ],
  "meshes": [
    {
      "name": "Cylinder_0",
      "primitives": [
        {
          "attributes": {
            "NORMAL": 1,
            "POSITION": 0,
            "TEXCOORD_0": 2
          },
          "indices": 3,
          "material": 1,
          "mode": 4
        }
      ]
    },
    {
      "name": "Icosphere.000_0",
      "primitives": [
        {
          "attributes": {
            "NORMAL": 5,
            "POSITION": 4,
            "TEXCOORD_0": 6
          },
          "indices": 7,
          "material": 0,
          "mode": 4
        }
      ]
    }
  ],
  "nodes": [
    {
      "children": [
        1
      ],
      "matrix": [
        1.0,
        0.0,
        0.0,
        0.0,
        0.0,
        2.220446049250313e-16,
        -1.0,
        0.0,
        0.0,
        1.0,
        2.220446049250313e-16,
        0.0,
        0.0,
        0.0,
        0.0,
        1.0
      ],
      "name": "Sketchfab_model"
    },
    {
      "children": [
        2,
        4,
        6
      ],
      "name": "Root"
    },
    {
      "children": [
        3
      ],
      "matrix": [
        0.5516800000000001,
        -0.8298400000000001,
        -0.08380000000000001,
        0.0,
        0.43501000000000006,
        0.20056000000000002,
        0.8778000000000001,
        0.0,
        -0.7116300000000001,
        -0.5207200000000001,
        0.47163,
        0.0,
        -1.2669899999999998,
        16.269,
        15.201769999999998,
        1.0
      ],
      "name": "Lamp"
    },
    {
      "name": "Lamp"
    },
    {
      "children": [
        5
      ],
      "matrix": [
        -0.41178000000000003,
        0.08030000000000001,
        0.0,
        0.0,
        -0.08030000000000001,
        -0.41178000000000003,
        0.0,
        0.0,
        0.0,
        0.0,
        0.41954,
        0.0,
        -0.38453000000000004,
        -0.15914000000000003,
        4.23859,
        1.0
      ],
      "name": "Cylinder"
    },
    {
      "mesh": 0,
      "name": "Cylinder_0"
    },
    {
      "children": [
        7
      ],
      "matrix": [
        -3.38233,
        0.65956,
        0.0,
        0.0,
        -0.65956,
        -3.38233,
        0.0,
        0.0,
        0.0,
        0.0,
        3.4460399999999995,
        0.0,
        0.96746,
        -0.11407000000000002,
        9.709869999999999,
        1.0
      ],
      "name": "Icosphere.000"
    },
    {
      "mesh": 1,
      "name": "Icosphere.000_0"
    }
  ],
  "samplers": [
    {
      "magFilter": 9729,
      "minFilter": 9987,
      "wrapS": 10497,
      "wrapT": 10497
    }
  ],
  "scene": 0,
  "scenes": [
    {
      "name": "Sketchfab_Scene",
      "nodes": [
        0
      ]
    }
  ],
  "textures": [
    {
      "sampler": 0,
      "source": 0
    }
  ]
}
