{
  "accessors": [
    {
      "bufferView": 2,
      "componentType": 5126,
      "count": 7186,
      "max": [
        1.0,
        6.037876605987549,
        64.33189392089844
      ],
      "min": [
        -0.9999999403953552,
        -1.0,
        3.0517578125e-05
      ],
      "type": "VEC3"
    },
    {
      "bufferView": 2,
      "byteOffset": 86232,
      "componentType": 5126,
      "count": 7186,
      "max": [
        1.0,
        0.9999420046806335,
        1.0
      ],
      "min": [
        -1.0,
        -0.9998523592948914,
        -1.0
      ],
      "type": "VEC3"
    },
    {
      "bufferView": 1,
      "componentType": 5126,
      "count": 7186,
      "max": [
        0.875,
        1.0
      ],
      "min": [
        0.21767884492874146,
        0.0
      ],
      "type": "VEC2"
    },
    {
      "bufferView": 0,
      "componentType": 5125,
      "count": 11142,
      "type": "SCALAR"
    },
    {
      "bufferView": 2,
      "byteOffset": 172464,
      "componentType": 5126,
      "count": 192,
      "max": [
        0.6134921312332153,
        5.926664352416992,
        55.5601692199707
      ],
      "min": [
        -0.6134920120239258,
        4.699680328369141,
        54.25930404663086
      ],
      "type": "VEC3"
    },
    {
      "bufferView": 2,
      "byteOffset": 174768,
      "componentType": 5126,
      "count": 192,
      "max": [
        0.9818360805511475,
        0.981836199760437,
        -0.08000366389751434
      ],
      "min": [
        -0.9818360805511475,
        -0.9818360805511475,
        -0.8857144117355347
      ],
      "type": "VEC3"
    },
    {
      "bufferView": 1,
      "byteOffset": 57488,
      "componentType": 5126,
      "count": 192,
      "max": [
        0.565898597240448,
        0.7924808859825134
      ],
      "min": [
        0.5412253737449646,
        0.776032030582428
      ],
      "type": "VEC2"
    },
    {
      "bufferView": 0,
      "byteOffset": 44568,
      "componentType": 5125,
      "count": 288,
      "type": "SCALAR"
    }
  ],
  "asset": {
    "extras": {
      "author": "Jonathan (https://sketchfab.com/JonyDev124)",
      "license": "CC-BY-4.0 (http://creativecommons.org/licenses/by/4.0/)",
      "source": "https://sketchfab.com/3d-models/lampara-20fa6c63508141a98c281aa94640e134",
      "title": "Lampara"
    },
    "generator": "Sketchfab-15.36.0",
    "version": "2.0"
  },
  "bufferViews": [
    {
      "buffer": 0,
      "byteLength": 45720,
      "name": "floatBufferViews",
      "target": 34963
    },
    {
      "buffer": 0,
      "byteLength": 59024,
      "byteOffset": 45720,
      "byteStride": 8,
      "name": "floatBufferViews",
      "target": 34962
    },
    {
      "buffer": 0,
      "byteLength": 177072,
      "byteOffset": 104744,
      "byteStride": 12,
      "name": "floatBufferViews",
      "target": 34962
    }
  ],
  "buffers": [
    {
      "byteLength": 281816,
      "uri": "scene.bin"
    }
  ],
  "extensionsUsed": [
    "KHR_materials_specular"
  ],
  "images": [
    {
      "uri": "textures/NegroBlanco_Degradafo.001_baseColor.png"
    }
  ],
  "materials": [
    {
      "doubleSided": true,
      "name": "NegroBlanco_Degradafo.001",
      "pbrMetallicRoughness": {
        "baseColorTexture": {
          "index": 0
        },
        "metallicFactor": 0.0,
        "roughnessFactor": 0.8695343685644692
      }
    },
    {
      "doubleSided": true,
      "emissiveFactor": [
        1.0,
        0.460609,
        0.357017
      ],
      "extensions": {
        "KHR_materials_specular": {
          "specularColorFactor": [
            1.0,
            1.0,
            1.0
          ],
          "specularFactor": 0.3774733637747336
        }
      },
      "name": "Material.001",
      "pbrMetallicRoughness": {
        "baseColorFactor": [
          0.8,
          0.8,
          0.8,
          1.0
        ],
        "roughnessFactor": 0.6468797564687976
      }
    }
  ],
  "meshes": [
    {
      "name": "Faro_NegroBlanco_Degradafo.001_0",
      "primitives": [
        {
          "attributes": {
            "NORMAL": 1,
            "POSITION": 0,
            "TEXCOORD_0": 2
          },
          "indices": 3,
          "material": 0,
          "mode": 4
        }
      ]
    },
    {
      "name": "Faro_Material.001_0",
      "primitives": [
        {
          "attributes": {
            "NORMAL": 5,
            "POSITION": 4,
            "TEXCOORD_0": 6
          },
          "indices": 7,
          "material": 1,
          "mode": 4
        }
      ]
    }
  ],
  "nodes": [
    {
      "children": [
        1
      ],
      "matrix": [
        1.6177257299423218,
        0.0,
        0.0,
        0.0,
        0.0,
        3.5920727058210073e-16,
        -1.6177257299423218,
        0.0,
        0.0,
        1.6177257299423218,
        3.5920727058210073e-16,
        0.0,
        0.0,
        0.0,
        0.0,
        1.0
      ],
      "name": "Sketchfab_model"
    },
    {
      "children": [
        2
      ],
      "matrix": [
        0.009999999776482582,
        0.0,
        0.0,
        0.0,
        0.0,
        0.0,
        0.009999999776482582,
        0.0,
        0.0,
        -0.009999999776482582,
        0.0,
        0.0,
        0.0,
        0.0,
        0.0,
        1.0
      ],
      "name": "eb9da66e81244e59ad52d325064253b2.fbx"
    },
    {
      "children": [
        3
      ],
      "name": "RootNode"
    },
    {
      "children": [
        4,
        5
      ],
      "matrix": [
        3.864966948813959e-07,
        9.81660681528254e-16,
        8.842013359069817,
        0.0,
        8.842013359069808,
        -3.864966948813959e-07,
        -3.8649669537222625e-07,
        0.0,
        1.9250188962569708e-07,
        4.40392971038818,
        -8.800819493946766e-15,
        0.0,
        0.0,
        0.0,
        0.0,
        1.0
      ],
      "name": "Faro"
    },
    {
      "mesh": 0,
      "name": "Faro_NegroBlanco_Degradafo.001_0"
    },
    {
      "mesh": 1,
      "name": "Faro_Material.001_0"
    }
  ],
  "samplers": [
    {
      "magFilter": 9729,
      "minFilter": 9987,
      "wrapS": 10497,
      "wrapT": 10497
    }
  ],
  "scene": 0,
  "scenes": [
    {
      "name": "Sketchfab_Scene",
      "nodes": [
        0
      ]
    }
  ],
  "textures": [
    {
      "sampler": 0,
      "source": 0
    }
  ]
}
