{
  "accessors": [
    {
      "bufferView": 2,
      "componentType": 5126,
      "count": 762,
      "max": [
        3.2532958984375,
        3.129767894744873,
        9.877459526062012
      ],
      "min": [
        -3.421283006668091,
        -3.240194082260132,
        0.0
      ],
      "type": "VEC3"
    },
    {
      "bufferView": 2,
      "byteOffset": 9144,
      "componentType": 5126,
      "count": 762,
      "max": [
        0.9990387558937073,
        0.998445987701416,
        1.0
      ],
      "min": [
        -0.9993682503700256,
        -0.9991273283958435,
        -1.0
      ],
      "type": "VEC3"
    },
    {
      "bufferView": 3,
      "componentType": 5126,
      "count": 762,
      "max": [
        0.9997544884681702,
        0.9945919513702393,
        0.999904453754425,
        1.0
      ],
      "min": [
        -0.9890040159225464,
        -0.9969547390937805,
        -0.9983369708061218,
        -1.0
      ],
      "type": "VEC4"
    },
    {
      "bufferView": 1,
      "componentType": 5126,
      "count": 762,
      "max": [
        0.9978439807891846,
        0.9711189866065979
      ],
      "min": [
        0.040045998990535736,
        0.12379500269889832
      ],
      "type": "VEC2"
    },
    {
      "bufferView": 0,
      "componentType": 5125,
      "count": 3612,
      "type": "SCALAR"
    }
  ],
  "asset": {
    "extras": {
      "author": "carlosbarrera_10 (https://sketchfab.com/carlosbarrera_10)",
      "license": "CC-BY-4.0 (http://creativecommons.org/licenses/by/4.0/)",
      "source": "https://sketchfab.com/3d-models/arbol-low-poly-95629521b3dd4e37a6c9b02bb87d6ed4",
      "title": "Árbol Low Poly"
    },
    "generator": "Sketchfab-12.66.0",
    "version": "2.0"
  },
  "bufferViews": [
    {
      "buffer": 0,
      "byteLength": 14448,
      "name": "floatBufferViews",
      "target": 34963
    },
    {
      "buffer": 0,
      "byteLength": 6096,
      "byteOffset": 14448,
      "byteStride": 8,
      "name": "floatBufferViews",
      "target": 34962
    },
    {
      "buffer": 0,
      "byteLength": 18288,
      "byteOffset": 20544,
      "byteStride": 12,
      "name": "floatBufferViews",
      "target": 34962
    },
    {
      "buffer": 0,
      "byteLength": 12192,
      "byteOffset": 38832,
      "byteStride": 16,
      "name": "floatBufferViews",
      "target": 34962
    }
  ],
  "buffers": [
    {
      "byteLength": 51024,
      "uri": "scene.bin"
    }
  ],
  "images": [
    {
      "uri": "textures/TreeinitialShadingGroup_baseColor.png"
    },
    {
      "uri": "textures/TreeinitialShadingGroup_metallicRoughness.png"
    },
    {
      "uri": "textures/TreeinitialShadingGroup_normal.png"
    }
  ],
  "materials": [
    {
      "doubleSided": true,
      "name": "TreeinitialShadingGroup",
      "normalTexture": {
        "index": 2
      },
      "occlusionTexture": {
        "index": 1
      },
      "pbrMetallicRoughness": {
        "baseColorTexture": {
          "index": 0
        },
        "metallicRoughnessTexture": {
          "index": 1
        }
      }
    }
  ],
  "meshes": [
    {
      "name": "Object_0",
      "primitives": [
        {
          "attributes": {
            "NORMAL": 1,
            "POSITION": 0,
            "TANGENT": 2,
            "TEXCOORD_0": 3
          },
          "indices": 4,
          "material": 0,
          "mode": 4
        }
      ]
    }
  ],
  "nodes": [
    {
      "children": [
        1
      ],
      "matrix": [
        1.0,
        0.0,
        0.0,
        0.0,
        0.0,
        2.220446049250313e-16,
        -1.0,
        0.0,
        0.0,
        1.0,
        2.220446049250313e-16,
        0.0,
        0.0,
        0.0,
        0.0,
        1.0
      ],
      "name": "Sketchfab_model"
    },
    {
      "children": [
        2
      ],
      "name": "f3cb7f15e4a54d2da211e21df8c2b5eb.obj.cleaner.materialmerger.gles"
    },
    {
      "mesh": 0,
      "name": "Object_2"
    }
  ],
  "samplers": [
    {
      "magFilter": 9729,
      "minFilter": 9987,
      "wrapS": 10497,
      "wrapT": 10497
    }
  ],
  "scene": 0,
  "scenes": [
    {
      "name": "Sketchfab_Scene",
      "nodes": [
        0
      ]
    }
  ],
  "textures": [
    {
      "sampler": 0,
      "source": 0
    },
    {
      "sampler": 0,
      "source": 1
    },
    {
      "sampler": 0,
      "source": 2
    }
  ]
}
